<?xml version="1.0" encoding="utf-8"?>
<svg xmlns="http://www.w3.org/2000/svg" viewBox="0 0 240 50">
  <defs>
    <linearGradient gradientUnits="userSpaceOnUse" x1="40" y1="10" x2="40" y2="50" id="gradient-0">
      <stop offset="0" style="stop-color: rgb(159, 148, 255);"/>
      <stop offset="1" style="stop-color: rgb(37, 34, 255);"/>
    </linearGradient>
    <linearGradient gradientUnits="userSpaceOnUse" x1="20" y1="0" x2="20" y2="40" id="gradient-1">
      <stop offset="0" style="stop-color: rgb(255, 168, 214);"/>
      <stop offset="1" style="stop-color: rgb(255, 89, 182);"/>
    </linearGradient>
  </defs>
  <path d="M 0 20 C 0 8.954 8.954 0 20 0 C 25.031 0 29.627 1.857 33.142 4.923 C 22.115 7.932 14.009 18.02 14.009 30 C 14.009 33.377 14.653 36.604 15.825 39.564 C 6.783 37.644 0 29.614 0 20 Z" style="stroke-linecap: round; stroke-linejoin: round; stroke-width: 50px; fill: url(&quot;#gradient-1&quot;);"/>
  <ellipse style="stroke-linecap: round; stroke-linejoin: round; stroke-width: 50px; fill: url(&quot;#gradient-0&quot;);" cx="40" cy="30" rx="20" ry="20"/>
  <path d="M 79.634 27.936 C 79.686 28.563 79.776 28.977 80.146 29.658 C 80.51 30.355 80.964 30.907 81.563 31.397 C 82.165 31.89 82.826 32.256 83.629 32.528 C 84.427 32.809 85.215 32.935 86.073 32.935 C 87.228 32.935 88.152 32.7 88.981 32.163 C 89.848 31.626 90.611 30.932 91.339 30.033 L 91.645 29.657 L 95.389 32.519 L 95.079 32.915 C 92.812 35.801 89.57 37.328 85.551 37.328 C 83.882 37.328 82.314 37.028 80.944 36.463 C 79.582 35.886 78.38 35.067 77.425 34.061 C 76.482 33.051 75.726 31.82 75.213 30.458 C 74.708 29.095 74.441 27.579 74.441 26 C 74.441 24.418 74.733 22.895 75.283 21.529 C 75.839 20.168 76.632 18.941 77.604 17.934 C 78.587 16.93 79.793 16.113 81.14 15.537 C 82.493 14.972 84.012 14.672 85.595 14.672 C 87.473 14.672 89.129 15.023 90.452 15.684 C 91.758 16.348 92.876 17.25 93.728 18.32 C 94.568 19.391 95.199 20.638 95.577 21.973 C 95.947 23.298 96.138 24.676 96.14 26.043 L 96.14 27.936 Z M 90.937 23.804 C 90.883 23.18 90.816 22.76 90.58 22.073 C 90.354 21.394 90.036 20.852 89.575 20.358 C 89.126 19.861 88.597 19.508 87.905 19.222 C 87.216 18.938 86.453 18.804 85.508 18.804 C 84.602 18.804 83.828 18.956 83.085 19.301 C 82.328 19.64 81.732 20.058 81.217 20.604 C 80.693 21.149 80.316 21.721 80.032 22.393 C 79.743 23.056 79.691 23.34 79.64 23.804 Z M 105.356 25.304 L 97.671 15.193 L 103.989 15.193 L 108.721 22.109 L 113.372 15.193 L 119.366 15.193 L 111.956 25.299 L 120.69 36.807 L 114.379 36.807 L 108.552 28.522 L 102.722 36.807 L 96.629 36.807 Z M 122.648 17.85 C 123.789 16.804 125.153 15.989 126.649 15.461 C 128.136 14.943 129.669 14.672 131.161 14.672 C 132.706 14.672 134.084 14.877 135.219 15.265 C 136.347 15.663 137.324 16.221 138.065 16.891 C 138.796 17.57 139.373 18.393 139.735 19.268 C 140.082 20.141 140.267 21.096 140.272 22.043 L 140.272 32.566 C 140.272 33.287 140.285 33.941 140.314 34.542 C 140.344 35.145 140.386 35.709 140.443 36.255 L 140.501 36.807 L 136.006 36.807 L 135.968 36.349 C 135.917 35.741 135.88 35.129 135.859 34.518 C 135.118 35.37 134.275 36.026 133.371 36.456 C 132.127 37.024 130.645 37.328 129.03 37.328 C 128.038 37.328 127.053 37.184 126.146 36.916 C 125.235 36.637 124.39 36.202 123.696 35.654 C 123.003 35.092 122.422 34.361 122.015 33.548 C 121.617 32.72 121.399 31.717 121.399 30.654 C 121.399 29.254 121.745 28.003 122.374 27.029 C 123.009 26.082 123.908 25.269 124.985 24.67 C 126.054 24.087 127.333 23.655 128.747 23.399 C 130.147 23.149 131.663 23.023 133.247 23.022 L 135.62 23.022 L 135.62 22.652 C 135.625 22.178 135.539 21.749 135.35 21.269 C 135.168 20.791 134.915 20.403 134.54 20.018 C 134.179 19.634 133.758 19.362 133.191 19.136 C 132.634 18.903 132.003 18.804 131.204 18.804 C 130.479 18.804 129.88 18.867 129.35 19.004 C 128.805 19.143 128.335 19.309 127.893 19.518 C 127.452 19.723 127.082 19.947 126.728 20.221 C 126.349 20.513 125.984 20.789 125.636 21.051 L 125.282 21.318 L 122.271 18.195 Z M 134.031 26.891 C 133.117 26.891 132.194 26.94 131.234 27.041 C 130.291 27.139 129.467 27.318 128.702 27.601 C 127.952 27.868 127.397 28.219 126.932 28.697 C 126.495 29.147 126.313 29.626 126.313 30.349 C 126.313 31.431 126.575 32.077 127.282 32.496 C 128.001 32.983 128.946 33.196 130.248 33.196 C 131.273 33.196 132.078 33.045 132.771 32.703 C 133.48 32.369 134.001 31.965 134.424 31.428 C 134.861 30.89 135.147 30.332 135.334 29.666 C 135.529 28.991 135.623 28.355 135.62 27.696 L 135.62 26.891 Z M 149.62 15.193 L 149.62 17.361 C 149.991 16.948 150.458 16.542 150.987 16.175 C 151.583 15.765 152.308 15.402 153.104 15.114 C 153.917 14.829 154.849 14.672 155.815 14.672 C 157.412 14.672 158.831 15.035 159.947 15.703 C 161.046 16.386 161.618 17.045 162.258 18.025 C 162.933 17.036 163.567 16.369 164.846 15.687 C 166.117 15.028 167.464 14.672 168.774 14.672 C 170.417 14.672 171.836 14.966 172.917 15.51 C 173.98 16.065 174.87 16.836 175.494 17.74 C 176.096 18.64 176.534 19.702 176.765 20.835 C 176.986 21.948 177.1 23.12 177.101 24.304 L 177.101 36.807 L 172.188 36.807 L 172.188 24.826 C 172.189 24.059 172.14 23.339 172.039 22.632 C 171.949 21.952 171.77 21.404 171.472 20.902 C 171.196 20.404 170.837 20.055 170.309 19.758 C 169.799 19.453 169.156 19.325 168.252 19.325 C 166.467 19.325 165.323 19.778 164.618 20.851 C 163.842 21.933 163.481 23.283 163.49 25.043 L 163.49 36.807 L 158.577 36.807 L 158.577 25.522 C 158.577 24.55 158.527 23.682 158.428 22.887 C 158.336 22.113 158.156 21.491 157.869 20.943 C 157.608 20.406 157.267 20.046 156.758 19.756 C 156.265 19.451 155.631 19.325 154.728 19.325 C 154.083 19.325 153.507 19.439 152.9 19.698 C 152.297 19.946 151.814 20.295 151.361 20.81 C 150.902 21.319 150.56 21.933 150.288 22.747 C 150.008 23.559 149.876 24.484 149.879 25.609 L 149.879 36.807 L 144.965 36.807 L 144.965 15.193 Z M 186.927 15.193 L 186.927 17.375 C 187.62 16.669 188.461 16.077 189.415 15.63 C 190.783 15.006 192.243 14.672 193.689 14.672 C 195.331 14.672 196.871 14.973 198.213 15.538 C 199.548 16.116 200.734 16.942 201.688 17.964 C 202.631 18.989 203.386 20.224 203.898 21.586 C 204.403 22.949 204.67 24.449 204.67 26 C 204.67 27.579 204.404 29.095 203.898 30.458 C 203.386 31.82 202.629 33.051 201.685 34.061 C 200.732 35.066 199.547 35.885 198.212 36.462 C 196.87 37.028 195.331 37.328 193.689 37.328 C 192.156 37.328 190.657 36.984 189.299 36.343 C 188.381 35.899 187.58 35.326 186.927 34.652 L 186.927 49.069 L 182.014 49.069 L 182.014 15.193 Z M 193.21 19.325 C 192.215 19.325 191.371 19.482 190.582 19.829 C 189.786 20.165 189.159 20.599 188.62 21.186 C 188.073 21.769 187.675 22.437 187.376 23.279 C 187.069 24.118 186.927 24.997 186.927 26 C 186.927 27.003 187.069 27.882 187.376 28.721 C 187.675 29.563 188.073 30.231 188.62 30.814 C 189.159 31.401 189.785 31.835 190.581 32.17 C 191.37 32.517 192.215 32.675 193.21 32.675 C 194.208 32.675 195.05 32.518 195.839 32.171 C 196.635 31.835 197.263 31.401 197.802 30.814 C 198.35 30.231 198.747 29.563 199.046 28.721 C 199.354 27.883 199.494 27.004 199.494 26 C 199.494 24.996 199.354 24.118 199.046 23.279 C 198.747 22.438 198.35 21.769 197.802 21.186 C 197.263 20.6 196.636 20.165 195.84 19.83 C 195.052 19.483 194.208 19.325 193.21 19.325 Z M 213.801 2.931 L 213.801 36.807 L 208.888 36.807 L 208.888 2.931 Z M 222.993 27.936 C 223.045 28.563 223.135 28.977 223.505 29.658 C 223.868 30.355 224.319 30.911 224.921 31.397 C 225.523 31.893 226.185 32.256 226.988 32.528 C 227.786 32.809 228.574 32.935 229.432 32.935 C 230.587 32.935 231.511 32.7 232.341 32.163 C 233.206 31.626 233.97 30.932 234.698 30.033 L 235.003 29.657 L 238.748 32.519 L 238.438 32.915 C 236.172 35.801 232.929 37.328 228.911 37.328 C 227.242 37.328 225.673 37.028 224.304 36.463 C 222.941 35.886 221.74 35.067 220.784 34.061 C 219.84 33.051 219.084 31.82 218.57 30.458 C 218.067 29.095 217.8 27.579 217.8 26 C 217.8 24.418 218.092 22.894 218.641 21.528 C 219.199 20.168 219.99 18.941 220.964 17.934 C 221.946 16.93 223.152 16.113 224.498 15.537 C 225.852 14.972 227.37 14.672 228.954 14.672 C 230.831 14.672 232.488 15.023 233.811 15.684 C 235.116 16.348 236.236 17.25 237.087 18.32 C 237.927 19.392 238.557 20.638 238.936 21.973 C 239.306 23.298 239.498 24.676 239.5 26.043 L 239.5 27.936 Z M 234.296 23.804 C 234.242 23.18 234.175 22.76 233.939 22.073 C 233.712 21.394 233.396 20.852 232.934 20.359 C 232.485 19.861 231.959 19.503 231.264 19.222 C 230.578 18.932 229.81 18.804 228.866 18.804 C 227.96 18.804 227.187 18.956 226.444 19.301 C 225.687 19.64 225.091 20.058 224.576 20.604 C 224.054 21.149 223.675 21.721 223.392 22.393 C 223.102 23.055 223.05 23.34 222.999 23.804 Z" style="text-wrap-mode: nowrap; fill: rgb(36, 36, 47);"/>
</svg>