<svg viewBox="0 0 428 428" xmlns="http://www.w3.org/2000/svg"><path d="M174.569 1.007c-11.535 3.121-19.919 16.157-17.782 27.649 1.627 8.746 6.654 15.445 14.273 19.016l4.063 1.905 83.8.19 83.799.19-106.697 106.81C116.528 276.39 125.995 266.037 125.961 277.13c-.021 7.027 2.234 12.532 7.211 17.602 4.881 4.973 10.558 7.314 17.698 7.301 11.087-.022.731 9.448 120.363-110.058l106.81-106.697.19 83.799.19 83.8 1.905 4.063c3.571 7.619 10.27 12.646 19.016 14.273 11.897 2.213 25.356-6.884 27.933-18.878.582-2.708.743-35.397.585-118.6l-.219-114.862-2.325-4.723c-2.706-5.497-6.573-9.269-12.212-11.914L409.097.357 293.537.221c-92.568-.109-116.238.048-118.968.786M19.071 93.509c-6.964 1.641-13.054 6.6-16.366 13.328l-2.348 4.77v297.49l1.879 4.009c2.645 5.639 6.417 9.506 11.914 12.212l4.723 2.325h297.52l4.724-2.325c5.497-2.706 9.269-6.573 11.913-12.212l1.88-4.009V242.86l-2.325-4.723c-2.713-5.51-6.59-9.286-12.213-11.893-3.309-1.535-5.067-1.863-10.072-1.88-5.102-.017-6.705.28-10.112 1.877-5.401 2.532-9.859 6.774-12.406 11.805l-2.092 4.131-.192 67.945-.193 67.945H49.933v-235.4h66.568c73.465 0 70.415.178 77.281-4.52 6.908-4.727 11.67-14.936 10.629-22.788-.996-7.507-4.86-13.997-10.678-17.934-7.294-4.935-2.627-4.699-91.677-4.62-44.165.039-81.508.356-82.985.704" fill-rule="evenodd"/></svg>