<svg viewBox="0 0 428 428" xmlns="http://www.w3.org/2000/svg"><path d="M201.873 15.387c-1.373.156-5.867.638-9.986 1.073-44.404 4.686-87.232 25.413-119.127 57.652-30.429 30.758-48.788 67.656-55.762 112.068-1.365 8.689-1.624 13.139-1.624 27.82 0 19.353 1.189 29.714 5.392 46.961 13.075 53.662 46.657 97.997 95.864 126.559 19.312 11.21 44.777 19.67 71.69 23.815 11.547 1.779 39.813 1.779 51.36 0 46.291-7.131 83.854-25.677 114.916-56.739 26.785-26.785 45.511-60.877 53.42-97.255 3.895-17.917 4.583-24.426 4.583-43.341 0-18.942-.687-25.418-4.609-43.455-10.803-49.688-41.099-93.642-84.281-122.276-25.8-17.109-53.072-27.246-84.889-31.553-7.749-1.049-31.783-1.913-36.947-1.329m25.68 50.28c27.657 2.526 53.424 12.484 76.327 29.498 13.176 9.788 28.206 26.349 37.296 41.096 8.085 13.114 15.627 32.215 18.716 47.399 8.61 42.319-1.07 85.31-27.069 120.219-9.745 13.085-25.791 27.827-39.671 36.446-43.705 27.138-97.696 30.099-143.709 7.881-16.568-8.001-27.885-16.084-41.016-29.297-12.597-12.674-21.367-25.075-28.8-40.723-19.455-40.955-19.455-87.417 0-128.372 7.536-15.864 16.319-28.242 29.132-41.055 31.575-31.576 74.478-47.138 118.794-43.092m-22.498 31.888c-7.203 3.103-11.457 7.121-14.498 13.692-2.697 5.829-2.642 13.709.136 19.728 2.518 5.454 7.39 10.304 12.964 12.905 3.632 1.694 5.197 1.997 10.343 1.997s6.711-.303 10.343-1.997c5.574-2.601 10.446-7.451 12.964-12.905 1.682-3.645 2.011-5.298 2.005-10.099-.006-5.035-.294-6.323-2.343-10.484-2.591-5.265-6.78-9.426-12.115-12.037-4.545-2.225-15.466-2.666-19.799-.8m.987 78.165c-7.319 2.729-12.564 7.538-15.747 14.44l-1.618 3.51V312.797l1.855 3.956c3.602 7.679 9.697 12.643 18.055 14.706 3.982.982 5.546 1.049 9.102.387 8.859-1.647 15.497-6.553 19.29-14.257l2.344-4.762V193.67l-1.874-3.923c-2.656-5.561-6.233-9.355-11.446-12.145-4.01-2.145-5.228-2.439-10.933-2.634-4.179-.143-7.33.119-9.028.752" fill-rule="evenodd"/></svg>